<mxfile host="app.diagrams.net" agent="Mozilla/5.0 (Windows NT 10.0; Win64; x64) AppleWebKit/537.36 (KHTML, like Gecko) Chrome/141.0.0.0 Safari/537.36 Edg/141.0.0.0" version="28.2.8">
  <diagram name="Page-1" id="TCBg2xOW25adFVMFYKjX">
    <mxGraphModel dx="1125" dy="660" grid="1" gridSize="10" guides="1" tooltips="1" connect="1" arrows="1" fold="1" page="1" pageScale="1" pageWidth="850" pageHeight="1100" math="0" shadow="0">
      <root>
        <mxCell id="0" />
        <mxCell id="1" parent="0" />
        <mxCell id="KGZUkPBfvyKHfxKD1IAH-6" value="" style="rounded=0;whiteSpace=wrap;html=1;direction=south;" parent="1" vertex="1">
          <mxGeometry x="600" y="80" width="240" height="590" as="geometry" />
        </mxCell>
        <mxCell id="KGZUkPBfvyKHfxKD1IAH-7" value="" style="rounded=0;whiteSpace=wrap;html=1;direction=south;" parent="1" vertex="1">
          <mxGeometry x="320" y="80" width="240" height="590" as="geometry" />
        </mxCell>
        <mxCell id="KGZUkPBfvyKHfxKD1IAH-8" value="" style="rounded=0;whiteSpace=wrap;html=1;direction=south;" parent="1" vertex="1">
          <mxGeometry x="40" y="80" width="240" height="590" as="geometry" />
        </mxCell>
        <mxCell id="jFa4SLn_Vu8nO-f6v0uS-1" value="" style="rounded=0;whiteSpace=wrap;html=1;" vertex="1" parent="1">
          <mxGeometry x="60" y="120" width="200" height="60" as="geometry" />
        </mxCell>
        <mxCell id="jFa4SLn_Vu8nO-f6v0uS-2" value="" style="rounded=0;whiteSpace=wrap;html=1;" vertex="1" parent="1">
          <mxGeometry x="620" y="120" width="200" height="60" as="geometry" />
        </mxCell>
        <mxCell id="jFa4SLn_Vu8nO-f6v0uS-3" value="" style="rounded=0;whiteSpace=wrap;html=1;" vertex="1" parent="1">
          <mxGeometry x="340" y="120" width="200" height="60" as="geometry" />
        </mxCell>
        <mxCell id="jFa4SLn_Vu8nO-f6v0uS-4" value="" style="rounded=1;whiteSpace=wrap;html=1;" vertex="1" parent="1">
          <mxGeometry x="50" y="260" width="220" height="210" as="geometry" />
        </mxCell>
        <mxCell id="jFa4SLn_Vu8nO-f6v0uS-5" value="" style="rounded=0;whiteSpace=wrap;html=1;" vertex="1" parent="1">
          <mxGeometry x="60" y="560" width="200" height="60" as="geometry" />
        </mxCell>
        <mxCell id="jFa4SLn_Vu8nO-f6v0uS-6" value="" style="whiteSpace=wrap;html=1;aspect=fixed;" vertex="1" parent="1">
          <mxGeometry x="345" y="360" width="80" height="80" as="geometry" />
        </mxCell>
        <mxCell id="jFa4SLn_Vu8nO-f6v0uS-8" value="" style="rounded=0;whiteSpace=wrap;html=1;" vertex="1" parent="1">
          <mxGeometry x="340" y="560" width="200" height="60" as="geometry" />
        </mxCell>
        <mxCell id="jFa4SLn_Vu8nO-f6v0uS-9" value="" style="rounded=0;whiteSpace=wrap;html=1;" vertex="1" parent="1">
          <mxGeometry x="620" y="560" width="200" height="60" as="geometry" />
        </mxCell>
        <mxCell id="jFa4SLn_Vu8nO-f6v0uS-10" value="" style="shape=parallelogram;perimeter=parallelogramPerimeter;whiteSpace=wrap;html=1;fixedSize=1;" vertex="1" parent="1">
          <mxGeometry x="340" y="460" width="200" height="60" as="geometry" />
        </mxCell>
        <mxCell id="jFa4SLn_Vu8nO-f6v0uS-11" value="" style="shape=document;whiteSpace=wrap;html=1;boundedLbl=1;" vertex="1" parent="1">
          <mxGeometry x="625" y="220" width="190" height="150" as="geometry" />
        </mxCell>
        <mxCell id="jFa4SLn_Vu8nO-f6v0uS-14" value="" style="whiteSpace=wrap;html=1;aspect=fixed;" vertex="1" parent="1">
          <mxGeometry x="640" y="440" width="80" height="80" as="geometry" />
        </mxCell>
        <mxCell id="jFa4SLn_Vu8nO-f6v0uS-20" value="" style="shape=document;whiteSpace=wrap;html=1;boundedLbl=1;" vertex="1" parent="1">
          <mxGeometry x="345" y="220" width="190" height="110" as="geometry" />
        </mxCell>
        <mxCell id="jFa4SLn_Vu8nO-f6v0uS-21" value="" style="html=1;shadow=0;dashed=0;align=center;verticalAlign=middle;shape=mxgraph.arrows2.twoWayArrow;dy=0.65;dx=22;" vertex="1" parent="1">
          <mxGeometry x="260" y="80" width="80" height="60" as="geometry" />
        </mxCell>
        <mxCell id="jFa4SLn_Vu8nO-f6v0uS-22" value="" style="html=1;shadow=0;dashed=0;align=center;verticalAlign=middle;shape=mxgraph.arrows2.twoWayArrow;dy=0.65;dx=22;" vertex="1" parent="1">
          <mxGeometry x="540" y="80" width="80" height="60" as="geometry" />
        </mxCell>
        <mxCell id="jFa4SLn_Vu8nO-f6v0uS-23" value="Contact us" style="text;html=1;whiteSpace=wrap;strokeColor=none;fillColor=none;align=center;verticalAlign=middle;rounded=0;" vertex="1" parent="1">
          <mxGeometry x="120" y="135" width="60" height="30" as="geometry" />
        </mxCell>
        <mxCell id="jFa4SLn_Vu8nO-f6v0uS-24" value="Twilas favorite" style="text;html=1;whiteSpace=wrap;strokeColor=none;fillColor=none;align=center;verticalAlign=middle;rounded=0;" vertex="1" parent="1">
          <mxGeometry x="750" y="135" width="60" height="30" as="geometry" />
        </mxCell>
        <mxCell id="jFa4SLn_Vu8nO-f6v0uS-25" value="HOME" style="text;html=1;whiteSpace=wrap;strokeColor=none;fillColor=none;align=center;verticalAlign=middle;rounded=0;" vertex="1" parent="1">
          <mxGeometry x="340" y="135" width="60" height="30" as="geometry" />
        </mxCell>
        <mxCell id="jFa4SLn_Vu8nO-f6v0uS-26" value="&lt;ol&gt;&lt;li&gt;Value 1&lt;/li&gt;&lt;li&gt;Value 2&lt;/li&gt;&lt;li&gt;Value 3&lt;/li&gt;&lt;/ol&gt;" style="text;strokeColor=none;fillColor=none;html=1;whiteSpace=wrap;verticalAlign=middle;overflow=hidden;" vertex="1" parent="1">
          <mxGeometry x="660" y="235" width="100" height="80" as="geometry" />
        </mxCell>
        <mxCell id="jFa4SLn_Vu8nO-f6v0uS-28" value="Title" style="text;strokeColor=none;fillColor=none;html=1;fontSize=24;fontStyle=1;verticalAlign=middle;align=center;" vertex="1" parent="1">
          <mxGeometry x="100" y="195" width="100" height="40" as="geometry" />
        </mxCell>
        <mxCell id="jFa4SLn_Vu8nO-f6v0uS-33" value="twila story&amp;nbsp;" style="text;html=1;whiteSpace=wrap;strokeColor=none;fillColor=none;align=center;verticalAlign=middle;rounded=0;" vertex="1" parent="1">
          <mxGeometry x="400" y="470" width="60" height="35" as="geometry" />
        </mxCell>
        <mxCell id="jFa4SLn_Vu8nO-f6v0uS-35" value="image" style="text;html=1;whiteSpace=wrap;strokeColor=none;fillColor=none;align=center;verticalAlign=middle;rounded=0;" vertex="1" parent="1">
          <mxGeometry x="650" y="465" width="60" height="30" as="geometry" />
        </mxCell>
        <UserObject label="INFO FORM" placeholders="1" name="Variable" id="jFa4SLn_Vu8nO-f6v0uS-36">
          <mxCell style="text;html=1;strokeColor=none;fillColor=none;align=center;verticalAlign=middle;whiteSpace=wrap;overflow=hidden;" vertex="1" parent="1">
            <mxGeometry x="390" y="250" width="80" height="20" as="geometry" />
          </mxCell>
        </UserObject>
        <mxCell id="jFa4SLn_Vu8nO-f6v0uS-38" value="HOME" style="text;html=1;whiteSpace=wrap;strokeColor=none;fillColor=none;align=center;verticalAlign=middle;rounded=0;" vertex="1" parent="1">
          <mxGeometry x="70" y="135" width="40" height="30" as="geometry" />
        </mxCell>
        <mxCell id="jFa4SLn_Vu8nO-f6v0uS-39" value="Contact us" style="text;html=1;whiteSpace=wrap;strokeColor=none;fillColor=none;align=center;verticalAlign=middle;rounded=0;" vertex="1" parent="1">
          <mxGeometry x="400" y="135" width="60" height="30" as="geometry" />
        </mxCell>
        <mxCell id="jFa4SLn_Vu8nO-f6v0uS-40" value="HOME" style="text;html=1;whiteSpace=wrap;strokeColor=none;fillColor=none;align=center;verticalAlign=middle;rounded=0;" vertex="1" parent="1">
          <mxGeometry x="620" y="135" width="60" height="30" as="geometry" />
        </mxCell>
        <mxCell id="jFa4SLn_Vu8nO-f6v0uS-41" value="Contact us" style="text;html=1;whiteSpace=wrap;strokeColor=none;fillColor=none;align=center;verticalAlign=middle;rounded=0;" vertex="1" parent="1">
          <mxGeometry x="690" y="135" width="60" height="30" as="geometry" />
        </mxCell>
        <mxCell id="jFa4SLn_Vu8nO-f6v0uS-42" value="Twilas favorite" style="text;html=1;whiteSpace=wrap;strokeColor=none;fillColor=none;align=center;verticalAlign=middle;rounded=0;" vertex="1" parent="1">
          <mxGeometry x="190" y="135" width="60" height="30" as="geometry" />
        </mxCell>
        <mxCell id="jFa4SLn_Vu8nO-f6v0uS-43" value="Twilas favorite" style="text;html=1;whiteSpace=wrap;strokeColor=none;fillColor=none;align=center;verticalAlign=middle;rounded=0;" vertex="1" parent="1">
          <mxGeometry x="480" y="130" width="60" height="30" as="geometry" />
        </mxCell>
        <mxCell id="jFa4SLn_Vu8nO-f6v0uS-46" value="carousel" style="text;html=1;whiteSpace=wrap;strokeColor=none;fillColor=none;align=center;verticalAlign=middle;rounded=0;" vertex="1" parent="1">
          <mxGeometry x="80" y="320" width="150" height="80" as="geometry" />
        </mxCell>
        <mxCell id="jFa4SLn_Vu8nO-f6v0uS-47" value="footer" style="text;html=1;whiteSpace=wrap;strokeColor=none;fillColor=none;align=center;verticalAlign=middle;rounded=0;" vertex="1" parent="1">
          <mxGeometry x="125" y="575" width="60" height="30" as="geometry" />
        </mxCell>
        <mxCell id="jFa4SLn_Vu8nO-f6v0uS-48" value="footer" style="text;html=1;whiteSpace=wrap;strokeColor=none;fillColor=none;align=center;verticalAlign=middle;rounded=0;" vertex="1" parent="1">
          <mxGeometry x="410" y="575" width="60" height="30" as="geometry" />
        </mxCell>
        <mxCell id="jFa4SLn_Vu8nO-f6v0uS-49" value="footer" style="text;html=1;whiteSpace=wrap;strokeColor=none;fillColor=none;align=center;verticalAlign=middle;rounded=0;" vertex="1" parent="1">
          <mxGeometry x="680" y="575" width="60" height="30" as="geometry" />
        </mxCell>
        <mxCell id="jFa4SLn_Vu8nO-f6v0uS-51" value="thank you" style="text;html=1;whiteSpace=wrap;strokeColor=none;fillColor=none;align=center;verticalAlign=middle;rounded=0;" vertex="1" parent="1">
          <mxGeometry x="750" y="470" width="60" height="30" as="geometry" />
        </mxCell>
        <mxCell id="jFa4SLn_Vu8nO-f6v0uS-52" value="image" style="text;html=1;whiteSpace=wrap;strokeColor=none;fillColor=none;align=center;verticalAlign=middle;rounded=0;" vertex="1" parent="1">
          <mxGeometry x="355" y="385" width="60" height="30" as="geometry" />
        </mxCell>
        <mxCell id="jFa4SLn_Vu8nO-f6v0uS-53" value="list of favorite things" style="text;html=1;whiteSpace=wrap;strokeColor=none;fillColor=none;align=center;verticalAlign=middle;rounded=0;" vertex="1" parent="1">
          <mxGeometry x="640" y="315" width="60" height="30" as="geometry" />
        </mxCell>
      </root>
    </mxGraphModel>
  </diagram>
</mxfile>
